<?xml version="1.0"?>
<svg xmlns="http://www.w3.org/2000/svg" width="126.891" height="73.949" viewBox="0 0 126.891 73.949">
  <path fill="#F9FAFD" d="M100.1 70.285H18.17c-8.423 0-15.247-6.822-15.247-15.248 0-8.42 6.824-15.246 15.246-15.246 1.122 0 2.218.123 3.274.354l.31.036c3.114-6.866 10.18-11.616 18.05-12.267l.068-.587C42.68 13.228 55.128 2.603 70.05 2.603c14.87 0 27.273 10.548 30.146 24.564l.12.664c11.772 0 21.09 9.38 21.09 21.148.002 11.77-9.533 21.307-21.305 21.307M89.227-34.18h81.932c8.42 0 15.245-6.822 15.245-15.25 0-8.42-6.826-15.244-15.246-15.244-1.127 0-2.222.122-3.277.353l-.31.035c-3.115-6.867-10.178-11.614-18.05-12.265l-.07-.59c-2.806-14.098-15.255-24.723-30.176-24.723-14.874 0-27.274 10.545-30.144 24.566l-.124.664c-11.773 0-21.09 9.378-21.09 21.145 0 11.775 9.536 21.308 21.307 21.308M201.676 51.89s-18.482-4.87-26.012 12.618c-2.547 7.857 1.77 15.05 1.77 15.05s-8.633 4.648-8.633 16.05c0 11.4 16.382 25.344 32.985 14.83 1.217-.44 2.436-1.327 2.436-1.327s9.077 8.192 26.563 2.77c0 0 2.55-.33 5.98-3.542 0 0 10.177 12.506 25.452.22 0 0 2.658 5.425 12.287 4.76s13.06-9.628 10.957-16.712c0 0 11.964-4.957 8.667-19.022-.045-.187-.092-.376-.143-.567 0 0-3.76-12.175-19.145-13.17 0 0-3.212-7.194-15.83-5.646 0 0-2.44-8.736-12.288-8.627-5.424.553-7.97 3.32-7.97 3.32s-16.49-15.84-37.076-1.004z"/>
</svg>
