<?xml version="1.0"?>
<svg xmlns="http://www.w3.org/2000/svg" width="126.891" height="73.949" viewBox="0 0 126.891 73.949">
  <path fill="#F9FAFD" d="M278.533 21.266H196.6c-8.42 0-15.245-6.822-15.245-15.248 0-8.42 6.824-15.246 15.246-15.246 1.124 0 2.22.122 3.276.353l.31.036c3.114-6.865 10.18-11.615 18.05-12.266l.068-.587c2.807-14.1 15.256-24.725 30.178-24.725 14.87 0 27.273 10.548 30.146 24.564l.12.664c11.772 0 21.09 9.38 21.09 21.147 0 11.772-9.534 21.31-21.305 21.31M89.227-34.18h81.932c8.42 0 15.245-6.822 15.245-15.25 0-8.42-6.826-15.244-15.246-15.244-1.127 0-2.222.122-3.277.353l-.31.035c-3.115-6.867-10.178-11.614-18.05-12.265l-.07-.59c-2.806-14.098-15.255-24.723-30.176-24.723-14.874 0-27.274 10.545-30.144 24.566l-.124.664c-11.773 0-21.09 9.378-21.09 21.145 0 11.775 9.536 21.308 21.307 21.308M34.766 7.615s-18.105-4.77-25.48 12.36C6.79 27.674 11.02 34.72 11.02 34.72S2.56 39.27 2.56 50.44c0 11.168 16.046 24.827 32.31 14.528 1.193-.433 2.387-1.3 2.387-1.3s8.89 8.023 26.02 2.71c0 0 2.495-.32 5.855-3.468 0 0 9.97 12.25 24.933.216 0 0 2.604 5.313 12.036 4.663 9.433-.65 12.794-9.433 10.733-16.373 0 0 11.72-4.855 8.49-18.634-.043-.183-.09-.368-.14-.556 0 0-3.682-11.926-18.753-12.902 0 0-3.145-7.046-15.507-5.53 0 0-2.388-8.558-12.036-8.45-5.31.54-7.805 3.25-7.805 3.25s-16.154-15.512-36.32-.98z"/>
</svg>
